<svg xmlns="http://www.w3.org/2000/svg" viewBox="0 0 1000 400" width="1000" height="400" font-family="'SF Pro Display','Segoe UI','Helvetica Neue',Arial,sans-serif"><defs><linearGradient id="g" x1="0" y1="0" x2="1" y2="0"><stop offset="0" stop-color="#A78BFA"/><stop offset="1" stop-color="#F472B6"/></linearGradient><linearGradient id="gv" x1="0" y1="0" x2="0" y2="1"><stop offset="0" stop-color="#A78BFA"/><stop offset="1" stop-color="#F472B6"/></linearGradient><clipPath id="clip"><rect width="1000" height="400" rx="22"/></clipPath></defs><g clip-path="url(#clip)">
<defs>
  <linearGradient id="bg1" x1="0" y1="0" x2="1" y2="1">
    <stop offset="0" stop-color="#0B0A14"/><stop offset=".55" stop-color="#171033"/><stop offset="1" stop-color="#0B0A14"/>
  </linearGradient>
  <radialGradient id="ga1"><stop offset="0" stop-color="#A78BFA" stop-opacity=".38"/><stop offset="1" stop-color="#A78BFA" stop-opacity="0"/></radialGradient>
  <radialGradient id="gb1"><stop offset="0" stop-color="#F472B6" stop-opacity=".30"/><stop offset="1" stop-color="#F472B6" stop-opacity="0"/></radialGradient>
  <pattern id="grid1" width="36" height="36" patternUnits="userSpaceOnUse"><path d="M36 0H0V36" fill="none" stroke="#A78BFA" stroke-opacity=".07"/></pattern>
</defs>
<rect width="1000" height="400" fill="url(#bg1)"/>
<rect width="1000" height="400" fill="url(#grid1)"/>
<circle cx="200" cy="120" r="300" fill="url(#ga1)">
  <animateTransform attributeName="transform" type="translate" values="0 0;40 24;0 0" dur="14s" repeatCount="indefinite"/></circle>
<circle cx="850" cy="300" r="280" fill="url(#gb1)">
  <animateTransform attributeName="transform" type="translate" values="0 0;-36 -20;0 0" dur="17s" repeatCount="indefinite"/></circle>
<circle cx="134" cy="339" r="0.8" fill="#8BE9FD" opacity=".2"><animate attributeName="opacity" values=".1;.9;.1" dur="2.5s" begin="3.0s" repeatCount="indefinite"/></circle><circle cx="472" cy="152" r="1" fill="#A78BFA" opacity=".2"><animate attributeName="opacity" values=".1;.9;.1" dur="4.0s" begin="3.6s" repeatCount="indefinite"/></circle><circle cx="390" cy="243" r="0.8" fill="#FFFFFF" opacity=".2"><animate attributeName="opacity" values=".1;.9;.1" dur="3.1s" begin="3.2s" repeatCount="indefinite"/></circle><circle cx="591" cy="41" r="1.2" fill="#A78BFA" opacity=".2"><animate attributeName="opacity" values=".1;.9;.1" dur="2.1s" begin="2.6s" repeatCount="indefinite"/></circle><circle cx="9" cy="352" r="1" fill="#FFFFFF" opacity=".2"><animate attributeName="opacity" values=".1;.9;.1" dur="4.9s" begin="2.1s" repeatCount="indefinite"/></circle><circle cx="764" cy="376" r="1" fill="#8BE9FD" opacity=".2"><animate attributeName="opacity" values=".1;.9;.1" dur="2.9s" begin="0.9s" repeatCount="indefinite"/></circle><circle cx="460" cy="116" r="0.8" fill="#FFFFFF" opacity=".2"><animate attributeName="opacity" values=".1;.9;.1" dur="5.4s" begin="2.2s" repeatCount="indefinite"/></circle><circle cx="642" cy="74" r="1.2" fill="#A78BFA" opacity=".2"><animate attributeName="opacity" values=".1;.9;.1" dur="5.0s" begin="3.6s" repeatCount="indefinite"/></circle><circle cx="973" cy="200" r="1.6" fill="#F472B6" opacity=".2"><animate attributeName="opacity" values=".1;.9;.1" dur="3.2s" begin="2.4s" repeatCount="indefinite"/></circle><circle cx="882" cy="338" r="1.6" fill="#A78BFA" opacity=".2"><animate attributeName="opacity" values=".1;.9;.1" dur="3.9s" begin="3.0s" repeatCount="indefinite"/></circle><circle cx="404" cy="266" r="1.2" fill="#8BE9FD" opacity=".2"><animate attributeName="opacity" values=".1;.9;.1" dur="2.3s" begin="2.7s" repeatCount="indefinite"/></circle><circle cx="108" cy="65" r="1.6" fill="#8BE9FD" opacity=".2"><animate attributeName="opacity" values=".1;.9;.1" dur="4.0s" begin="0.1s" repeatCount="indefinite"/></circle><circle cx="43" cy="281" r="1.6" fill="#F472B6" opacity=".2"><animate attributeName="opacity" values=".1;.9;.1" dur="2.7s" begin="0.9s" repeatCount="indefinite"/></circle><circle cx="12" cy="80" r="1" fill="#FFFFFF" opacity=".2"><animate attributeName="opacity" values=".1;.9;.1" dur="4.1s" begin="3.8s" repeatCount="indefinite"/></circle><circle cx="578" cy="184" r="1.2" fill="#A78BFA" opacity=".2"><animate attributeName="opacity" values=".1;.9;.1" dur="3.5s" begin="3.4s" repeatCount="indefinite"/></circle><circle cx="955" cy="375" r="1" fill="#F472B6" opacity=".2"><animate attributeName="opacity" values=".1;.9;.1" dur="3.7s" begin="0.2s" repeatCount="indefinite"/></circle><circle cx="870" cy="228" r="1" fill="#FFFFFF" opacity=".2"><animate attributeName="opacity" values=".1;.9;.1" dur="3.9s" begin="1.4s" repeatCount="indefinite"/></circle><circle cx="346" cy="215" r="1.2" fill="#FFFFFF" opacity=".2"><animate attributeName="opacity" values=".1;.9;.1" dur="4.4s" begin="3.2s" repeatCount="indefinite"/></circle><circle cx="635" cy="220" r="1" fill="#A78BFA" opacity=".2"><animate attributeName="opacity" values=".1;.9;.1" dur="5.2s" begin="3.2s" repeatCount="indefinite"/></circle><circle cx="816" cy="102" r="0.8" fill="#A78BFA" opacity=".2"><animate attributeName="opacity" values=".1;.9;.1" dur="5.5s" begin="1.8s" repeatCount="indefinite"/></circle><circle cx="754" cy="112" r="1.2" fill="#A78BFA" opacity=".2"><animate attributeName="opacity" values=".1;.9;.1" dur="5.2s" begin="0.7s" repeatCount="indefinite"/></circle><circle cx="290" cy="67" r="1.2" fill="#F472B6" opacity=".2"><animate attributeName="opacity" values=".1;.9;.1" dur="4.6s" begin="2.6s" repeatCount="indefinite"/></circle><circle cx="294" cy="281" r="1.6" fill="#FFFFFF" opacity=".2"><animate attributeName="opacity" values=".1;.9;.1" dur="2.5s" begin="1.2s" repeatCount="indefinite"/></circle><circle cx="343" cy="318" r="1.2" fill="#A78BFA" opacity=".2"><animate attributeName="opacity" values=".1;.9;.1" dur="3.0s" begin="2.9s" repeatCount="indefinite"/></circle><circle cx="977" cy="386" r="1.6" fill="#A78BFA" opacity=".2"><animate attributeName="opacity" values=".1;.9;.1" dur="2.9s" begin="1.6s" repeatCount="indefinite"/></circle><circle cx="35" cy="384" r="1.6" fill="#FFFFFF" opacity=".2"><animate attributeName="opacity" values=".1;.9;.1" dur="4.2s" begin="0.9s" repeatCount="indefinite"/></circle><circle cx="976" cy="319" r="1.6" fill="#F472B6" opacity=".2"><animate attributeName="opacity" values=".1;.9;.1" dur="4.1s" begin="0.1s" repeatCount="indefinite"/></circle><circle cx="675" cy="321" r="1.6" fill="#A78BFA" opacity=".2"><animate attributeName="opacity" values=".1;.9;.1" dur="4.9s" begin="0.5s" repeatCount="indefinite"/></circle><circle cx="212" cy="19" r="0.8" fill="#A78BFA" opacity=".2"><animate attributeName="opacity" values=".1;.9;.1" dur="3.2s" begin="3.8s" repeatCount="indefinite"/></circle><circle cx="744" cy="166" r="1.2" fill="#F472B6" opacity=".2"><animate attributeName="opacity" values=".1;.9;.1" dur="2.0s" begin="3.5s" repeatCount="indefinite"/></circle><circle cx="38" cy="328" r="1.6" fill="#F472B6" opacity=".2"><animate attributeName="opacity" values=".1;.9;.1" dur="5.3s" begin="3.5s" repeatCount="indefinite"/></circle><circle cx="780" cy="249" r="0.8" fill="#FFFFFF" opacity=".2"><animate attributeName="opacity" values=".1;.9;.1" dur="2.8s" begin="0.4s" repeatCount="indefinite"/></circle><circle cx="573" cy="359" r="1" fill="#FFFFFF" opacity=".2"><animate attributeName="opacity" values=".1;.9;.1" dur="2.4s" begin="2.7s" repeatCount="indefinite"/></circle><circle cx="296" cy="200" r="1.2" fill="#FFFFFF" opacity=".2"><animate attributeName="opacity" values=".1;.9;.1" dur="5.6s" begin="0.1s" repeatCount="indefinite"/></circle><circle cx="201" cy="131" r="1" fill="#8BE9FD" opacity=".2"><animate attributeName="opacity" values=".1;.9;.1" dur="3.7s" begin="1.1s" repeatCount="indefinite"/></circle><circle cx="96" cy="152" r="1.2" fill="#FFFFFF" opacity=".2"><animate attributeName="opacity" values=".1;.9;.1" dur="5.1s" begin="2.1s" repeatCount="indefinite"/></circle><circle cx="65" cy="16" r="1" fill="#F472B6" opacity=".2"><animate attributeName="opacity" values=".1;.9;.1" dur="2.7s" begin="2.2s" repeatCount="indefinite"/></circle><circle cx="268" cy="133" r="1.2" fill="#8BE9FD" opacity=".2"><animate attributeName="opacity" values=".1;.9;.1" dur="3.4s" begin="0.5s" repeatCount="indefinite"/></circle><circle cx="235" cy="378" r="1.6" fill="#F472B6" opacity=".2"><animate attributeName="opacity" values=".1;.9;.1" dur="4.3s" begin="3.1s" repeatCount="indefinite"/></circle><circle cx="321" cy="163" r="1.6" fill="#F472B6" opacity=".2"><animate attributeName="opacity" values=".1;.9;.1" dur="5.3s" begin="1.4s" repeatCount="indefinite"/></circle><circle cx="615" cy="313" r="1.6" fill="#A78BFA" opacity=".2"><animate attributeName="opacity" values=".1;.9;.1" dur="4.3s" begin="0.9s" repeatCount="indefinite"/></circle><circle cx="82" cy="107" r="1.2" fill="#A78BFA" opacity=".2"><animate attributeName="opacity" values=".1;.9;.1" dur="3.8s" begin="1.1s" repeatCount="indefinite"/></circle><circle cx="787" cy="331" r="0.8" fill="#A78BFA" opacity=".2"><animate attributeName="opacity" values=".1;.9;.1" dur="2.4s" begin="0.5s" repeatCount="indefinite"/></circle><circle cx="885" cy="16" r="1" fill="#FFFFFF" opacity=".2"><animate attributeName="opacity" values=".1;.9;.1" dur="2.6s" begin="1.8s" repeatCount="indefinite"/></circle>

<defs>
  <linearGradient id="nameg" x1="0" y1="0" x2="1" y2="0"><stop offset="0" stop-color="#A78BFA"/><stop offset=".55" stop-color="#F472B6"/><stop offset="1" stop-color="#8BE9FD"/></linearGradient>
  <linearGradient id="shine" x1="0" y1="0" x2="1" y2="0"><stop offset="0" stop-color="#fff" stop-opacity="0"/><stop offset=".5" stop-color="#fff" stop-opacity=".85"/><stop offset="1" stop-color="#fff" stop-opacity="0"/></linearGradient>
  <mask id="nm"><text x="52" y="188" font-size="84" font-weight="800" fill="#fff" letter-spacing="-1">Yuvika</text>
     <text x="52" y="268" font-size="84" font-weight="800" fill="#fff" letter-spacing="-1">Malhotra</text></mask>
</defs>
<text x="54" y="98" font-family="'JetBrains Mono','SF Mono','Cascadia Code',Menlo,Consolas,monospace" font-size="14.5" letter-spacing="4.5" fill="#8BE9FD">✦ AI &amp; MACHINE LEARNING · FINAL-YEAR CS</text>
<g mask="url(#nm)">
  <rect x="40" y="90" width="520" height="200" fill="url(#nameg)"/>
  <rect x="-200" y="90" width="120" height="200" fill="url(#shine)" transform="skewX(-18)"><animate attributeName="x" values="-200;700" dur="5.5s" repeatCount="indefinite"/></rect>
</g>
<text x="54" y="316" font-family="Georgia,'Times New Roman',serif" font-style="italic" font-size="23" fill="#E9D5FF">I build things that see, reason, and ship.</text>
<rect x="54" y="344" width="300" height="26" rx="13" fill="#86EFAC" fill-opacity=".13" stroke="#86EFAC" stroke-opacity=".6"/><circle cx="69" cy="357" r="4" fill="#86EFAC"><animate attributeName="opacity" values="1;.25;1" dur="1.8s" repeatCount="indefinite"/></circle><text x="82" y="362" font-family="'JetBrains Mono','SF Mono','Cascadia Code',Menlo,Consolas,monospace" font-size="13" font-weight="600" letter-spacing="1.2" fill="#86EFAC" text-anchor="start">OPEN TO AI/ML OPPORTUNITIES</text>
<g transform="translate(790 200)">
  <ellipse rx="135" ry="150" fill="none" stroke="#A78BFA" stroke-opacity=".18" stroke-dasharray="3 9"><animateTransform attributeName="transform" type="rotate" from="0" to="360" dur="60s" repeatCount="indefinite"/></ellipse>
  <path d="M-83 -135H-105V-113M83 -135H105V-113M-83 135H-105V113M83 135H105V113" fill="none" stroke="#8BE9FD" stroke-width="2.4" stroke-linecap="round" opacity=".9"/>
  <g transform="scale(1.0)"><g stroke="#A78BFA" stroke-opacity=".28" stroke-width=".8"><line x1="80.0" y1="0.0" x2="78.3" y2="-21.8"/><line x1="80.0" y1="0.0" x2="78.3" y2="21.8"/><line x1="78.3" y1="21.8" x2="73.1" y2="42.7"/><line x1="78.3" y1="21.8" x2="64.7" y2="61.7"/><line x1="73.1" y1="42.7" x2="64.7" y2="61.7"/><line x1="73.1" y1="42.7" x2="53.5" y2="78.0"/><line x1="64.7" y1="61.7" x2="53.5" y2="78.0"/><line x1="64.7" y1="61.7" x2="40.0" y2="90.9"/><line x1="53.5" y1="78.0" x2="40.0" y2="90.9"/><line x1="53.5" y1="78.0" x2="24.0" y2="58.0"/><line x1="40.0" y1="90.9" x2="24.7" y2="99.9"/><line x1="40.0" y1="90.9" x2="8.4" y2="104.4"/><line x1="24.7" y1="99.9" x2="8.4" y2="104.4"/><line x1="24.7" y1="99.9" x2="-8.4" y2="104.4"/><line x1="8.4" y1="104.4" x2="-8.4" y2="104.4"/><line x1="8.4" y1="104.4" x2="-24.7" y2="99.9"/><line x1="-8.4" y1="104.4" x2="-24.7" y2="99.9"/><line x1="-8.4" y1="104.4" x2="-40.0" y2="90.9"/><line x1="-24.7" y1="99.9" x2="-40.0" y2="90.9"/><line x1="-24.7" y1="99.9" x2="-53.5" y2="78.0"/><line x1="-40.0" y1="90.9" x2="-53.5" y2="78.0"/><line x1="-40.0" y1="90.9" x2="-16.0" y2="64.0"/><line x1="-53.5" y1="78.0" x2="-64.7" y2="61.7"/><line x1="-53.5" y1="78.0" x2="-24.0" y2="58.0"/><line x1="-64.7" y1="61.7" x2="-73.1" y2="42.7"/><line x1="-64.7" y1="61.7" x2="-24.0" y2="58.0"/><line x1="-73.1" y1="42.7" x2="-78.3" y2="21.8"/><line x1="-73.1" y1="42.7" x2="-80.0" y2="0.0"/><line x1="-78.3" y1="21.8" x2="-80.0" y2="0.0"/><line x1="-78.3" y1="21.8" x2="-78.3" y2="-21.8"/><line x1="-80.0" y1="0.0" x2="-78.3" y2="-21.8"/><line x1="-80.0" y1="0.0" x2="-51.0" y2="-22.0"/><line x1="-78.3" y1="-21.8" x2="-73.1" y2="-42.7"/><line x1="-78.3" y1="-21.8" x2="-51.0" y2="-22.0"/><line x1="-73.1" y1="-42.7" x2="-58.0" y2="-42.0"/><line x1="-73.1" y1="-42.7" x2="-64.7" y2="-61.7"/><line x1="-64.7" y1="-61.7" x2="-53.5" y2="-78.0"/><line x1="-64.7" y1="-61.7" x2="-58.0" y2="-42.0"/><line x1="-53.5" y1="-78.0" x2="-40.0" y2="-90.9"/><line x1="-53.5" y1="-78.0" x2="-48.0" y2="-48.4"/><line x1="-40.0" y1="-90.9" x2="-24.7" y2="-99.9"/><line x1="-40.0" y1="-90.9" x2="-8.4" y2="-104.4"/><line x1="-24.7" y1="-99.9" x2="-8.4" y2="-104.4"/><line x1="-24.7" y1="-99.9" x2="8.4" y2="-104.4"/><line x1="-8.4" y1="-104.4" x2="8.4" y2="-104.4"/><line x1="-8.4" y1="-104.4" x2="24.7" y2="-99.9"/><line x1="8.4" y1="-104.4" x2="24.7" y2="-99.9"/><line x1="8.4" y1="-104.4" x2="40.0" y2="-90.9"/><line x1="24.7" y1="-99.9" x2="40.0" y2="-90.9"/><line x1="24.7" y1="-99.9" x2="53.5" y2="-78.0"/><line x1="40.0" y1="-90.9" x2="53.5" y2="-78.0"/><line x1="40.0" y1="-90.9" x2="64.7" y2="-61.7"/><line x1="53.5" y1="-78.0" x2="64.7" y2="-61.7"/><line x1="53.5" y1="-78.0" x2="48.0" y2="-48.4"/><line x1="64.7" y1="-61.7" x2="73.1" y2="-42.7"/><line x1="64.7" y1="-61.7" x2="58.0" y2="-42.0"/><line x1="73.1" y1="-42.7" x2="58.0" y2="-42.0"/><line x1="73.1" y1="-42.7" x2="78.3" y2="-21.8"/><line x1="78.3" y1="-21.8" x2="51.0" y2="-22.0"/><line x1="78.3" y1="-21.8" x2="58.0" y2="-42.0"/><line x1="-58.0" y1="-42.0" x2="-48.0" y2="-48.4"/><line x1="-58.0" y1="-42.0" x2="-46.6" y2="-26.2"/><line x1="-48.0" y1="-48.4" x2="-38.0" y2="-51.0"/><line x1="-48.0" y1="-48.4" x2="-28.0" y2="-48.4"/><line x1="-38.0" y1="-51.0" x2="-28.0" y2="-48.4"/><line x1="-38.0" y1="-51.0" x2="-18.0" y2="-42.0"/><line x1="-28.0" y1="-48.4" x2="-18.0" y2="-42.0"/><line x1="-28.0" y1="-48.4" x2="-36.0" y2="-28.0"/><line x1="-18.0" y1="-42.0" x2="-25.4" y2="-26.2"/><line x1="-18.0" y1="-42.0" x2="-21.0" y2="-22.0"/><line x1="58.0" y1="-42.0" x2="48.0" y2="-48.4"/><line x1="58.0" y1="-42.0" x2="46.6" y2="-26.2"/><line x1="48.0" y1="-48.4" x2="38.0" y2="-51.0"/><line x1="48.0" y1="-48.4" x2="28.0" y2="-48.4"/><line x1="38.0" y1="-51.0" x2="28.0" y2="-48.4"/><line x1="38.0" y1="-51.0" x2="18.0" y2="-42.0"/><line x1="28.0" y1="-48.4" x2="18.0" y2="-42.0"/><line x1="28.0" y1="-48.4" x2="36.0" y2="-28.0"/><line x1="18.0" y1="-42.0" x2="25.4" y2="-26.2"/><line x1="18.0" y1="-42.0" x2="21.0" y2="-22.0"/><line x1="-21.0" y1="-22.0" x2="-25.4" y2="-17.8"/><line x1="-21.0" y1="-22.0" x2="-25.4" y2="-26.2"/><line x1="-25.4" y1="-17.8" x2="-25.4" y2="-26.2"/><line x1="-25.4" y1="-17.8" x2="-36.0" y2="-16.0"/><line x1="-36.0" y1="-16.0" x2="-46.6" y2="-17.8"/><line x1="-36.0" y1="-16.0" x2="-36.0" y2="-28.0"/><line x1="-46.6" y1="-17.8" x2="-51.0" y2="-22.0"/><line x1="-46.6" y1="-17.8" x2="-46.6" y2="-26.2"/><line x1="-51.0" y1="-22.0" x2="-46.6" y2="-26.2"/><line x1="-51.0" y1="-22.0" x2="-36.0" y2="-28.0"/><line x1="-46.6" y1="-26.2" x2="-36.0" y2="-28.0"/><line x1="-46.6" y1="-26.2" x2="-25.4" y2="-26.2"/><line x1="-36.0" y1="-28.0" x2="-25.4" y2="-26.2"/><line x1="-36.0" y1="-28.0" x2="0.0" y2="-20.0"/><line x1="-25.4" y1="-26.2" x2="0.0" y2="-20.0"/><line x1="-25.4" y1="-26.2" x2="0.0" y2="-4.0"/><line x1="51.0" y1="-22.0" x2="46.6" y2="-17.8"/><line x1="51.0" y1="-22.0" x2="46.6" y2="-26.2"/><line x1="46.6" y1="-17.8" x2="46.6" y2="-26.2"/><line x1="46.6" y1="-17.8" x2="36.0" y2="-16.0"/><line x1="36.0" y1="-16.0" x2="25.4" y2="-17.8"/><line x1="36.0" y1="-16.0" x2="36.0" y2="-28.0"/><line x1="25.4" y1="-17.8" x2="21.0" y2="-22.0"/><line x1="25.4" y1="-17.8" x2="25.4" y2="-26.2"/><line x1="21.0" y1="-22.0" x2="25.4" y2="-26.2"/><line x1="21.0" y1="-22.0" x2="36.0" y2="-28.0"/><line x1="25.4" y1="-26.2" x2="36.0" y2="-28.0"/><line x1="25.4" y1="-26.2" x2="46.6" y2="-26.2"/><line x1="36.0" y1="-28.0" x2="46.6" y2="-26.2"/><line x1="36.0" y1="-28.0" x2="0.0" y2="-20.0"/><line x1="0.0" y1="-20.0" x2="0.0" y2="-4.0"/><line x1="0.0" y1="-20.0" x2="0.0" y2="12.0"/><line x1="0.0" y1="-4.0" x2="0.0" y2="12.0"/><line x1="0.0" y1="-4.0" x2="-9.0" y2="30.0"/><line x1="0.0" y1="12.0" x2="-9.0" y2="30.0"/><line x1="0.0" y1="12.0" x2="9.0" y2="30.0"/><line x1="-9.0" y1="30.0" x2="-4.0" y2="33.0"/><line x1="-9.0" y1="30.0" x2="0.0" y2="34.0"/><line x1="-4.0" y1="33.0" x2="0.0" y2="34.0"/><line x1="-4.0" y1="33.0" x2="4.0" y2="33.0"/><line x1="0.0" y1="34.0" x2="4.0" y2="33.0"/><line x1="0.0" y1="34.0" x2="9.0" y2="30.0"/><line x1="4.0" y1="33.0" x2="9.0" y2="30.0"/><line x1="4.0" y1="33.0" x2="0.0" y2="52.0"/><line x1="9.0" y1="30.0" x2="8.0" y2="52.8"/><line x1="9.0" y1="30.0" x2="0.0" y2="52.0"/><line x1="-24.0" y1="58.0" x2="-16.0" y2="55.0"/><line x1="-24.0" y1="58.0" x2="-16.0" y2="64.0"/><line x1="-16.0" y1="55.0" x2="-8.0" y2="52.8"/><line x1="-16.0" y1="55.0" x2="-16.0" y2="64.0"/><line x1="-8.0" y1="52.8" x2="0.0" y2="52.0"/><line x1="-8.0" y1="52.8" x2="-16.0" y2="64.0"/><line x1="0.0" y1="52.0" x2="8.0" y2="52.8"/><line x1="0.0" y1="52.0" x2="0.0" y2="68.0"/><line x1="8.0" y1="52.8" x2="16.0" y2="55.0"/><line x1="8.0" y1="52.8" x2="16.0" y2="64.0"/><line x1="16.0" y1="55.0" x2="24.0" y2="58.0"/><line x1="16.0" y1="55.0" x2="16.0" y2="64.0"/><line x1="24.0" y1="58.0" x2="16.0" y2="64.0"/><line x1="24.0" y1="58.0" x2="8.0" y2="66.9"/><line x1="-16.0" y1="64.0" x2="-8.0" y2="66.9"/><line x1="-16.0" y1="64.0" x2="0.0" y2="68.0"/><line x1="-8.0" y1="66.9" x2="0.0" y2="68.0"/><line x1="-8.0" y1="66.9" x2="8.0" y2="66.9"/><line x1="0.0" y1="68.0" x2="8.0" y2="66.9"/><line x1="0.0" y1="68.0" x2="16.0" y2="64.0"/><line x1="8.0" y1="66.9" x2="16.0" y2="64.0"/></g><circle cx="80.0" cy="0.0" r="2.3" fill="#F472B6"><animate attributeName="opacity" values=".35;0.95;.35" dur="3.2s" begin="0.00s" repeatCount="indefinite"/></circle><circle cx="78.3" cy="21.8" r="2.3" fill="#A78BFA"><animate attributeName="opacity" values=".35;0.95;.35" dur="3.2s" begin="0.07s" repeatCount="indefinite"/></circle><circle cx="73.1" cy="42.7" r="2.3" fill="#A78BFA"><animate attributeName="opacity" values=".35;0.95;.35" dur="3.2s" begin="0.14s" repeatCount="indefinite"/></circle><circle cx="64.7" cy="61.7" r="2.3" fill="#A78BFA"><animate attributeName="opacity" values=".35;0.95;.35" dur="3.2s" begin="0.21s" repeatCount="indefinite"/></circle><circle cx="53.5" cy="78.0" r="2.3" fill="#A78BFA"><animate attributeName="opacity" values=".35;0.95;.35" dur="3.2s" begin="0.28s" repeatCount="indefinite"/></circle><circle cx="40.0" cy="90.9" r="2.3" fill="#A78BFA"><animate attributeName="opacity" values=".35;0.95;.35" dur="3.2s" begin="0.35s" repeatCount="indefinite"/></circle><circle cx="24.7" cy="99.9" r="2.3" fill="#A78BFA"><animate attributeName="opacity" values=".35;0.95;.35" dur="3.2s" begin="0.42s" repeatCount="indefinite"/></circle><circle cx="8.4" cy="104.4" r="2.3" fill="#8BE9FD"><animate attributeName="opacity" values=".35;0.95;.35" dur="3.2s" begin="0.49s" repeatCount="indefinite"/></circle><circle cx="-8.4" cy="104.4" r="2.3" fill="#A78BFA"><animate attributeName="opacity" values=".35;0.95;.35" dur="3.2s" begin="0.56s" repeatCount="indefinite"/></circle><circle cx="-24.7" cy="99.9" r="2.3" fill="#A78BFA"><animate attributeName="opacity" values=".35;0.95;.35" dur="3.2s" begin="0.63s" repeatCount="indefinite"/></circle><circle cx="-40.0" cy="90.9" r="2.3" fill="#A78BFA"><animate attributeName="opacity" values=".35;0.95;.35" dur="3.2s" begin="0.70s" repeatCount="indefinite"/></circle><circle cx="-53.5" cy="78.0" r="2.3" fill="#F472B6"><animate attributeName="opacity" values=".35;0.95;.35" dur="3.2s" begin="0.77s" repeatCount="indefinite"/></circle><circle cx="-64.7" cy="61.7" r="2.3" fill="#A78BFA"><animate attributeName="opacity" values=".35;0.95;.35" dur="3.2s" begin="0.84s" repeatCount="indefinite"/></circle><circle cx="-73.1" cy="42.7" r="2.3" fill="#A78BFA"><animate attributeName="opacity" values=".35;0.95;.35" dur="3.2s" begin="0.91s" repeatCount="indefinite"/></circle><circle cx="-78.3" cy="21.8" r="2.3" fill="#8BE9FD"><animate attributeName="opacity" values=".35;0.95;.35" dur="3.2s" begin="0.98s" repeatCount="indefinite"/></circle><circle cx="-80.0" cy="0.0" r="2.3" fill="#A78BFA"><animate attributeName="opacity" values=".35;0.95;.35" dur="3.2s" begin="1.05s" repeatCount="indefinite"/></circle><circle cx="-78.3" cy="-21.8" r="2.3" fill="#A78BFA"><animate attributeName="opacity" values=".35;0.95;.35" dur="3.2s" begin="1.12s" repeatCount="indefinite"/></circle><circle cx="-73.1" cy="-42.7" r="2.3" fill="#A78BFA"><animate attributeName="opacity" values=".35;0.95;.35" dur="3.2s" begin="1.19s" repeatCount="indefinite"/></circle><circle cx="-64.7" cy="-61.7" r="2.3" fill="#A78BFA"><animate attributeName="opacity" values=".35;0.95;.35" dur="3.2s" begin="1.26s" repeatCount="indefinite"/></circle><circle cx="-53.5" cy="-78.0" r="2.3" fill="#A78BFA"><animate attributeName="opacity" values=".35;0.95;.35" dur="3.2s" begin="1.33s" repeatCount="indefinite"/></circle><circle cx="-40.0" cy="-90.9" r="2.3" fill="#A78BFA"><animate attributeName="opacity" values=".35;0.95;.35" dur="3.2s" begin="1.40s" repeatCount="indefinite"/></circle><circle cx="-24.7" cy="-99.9" r="2.3" fill="#8BE9FD"><animate attributeName="opacity" values=".35;0.95;.35" dur="3.2s" begin="1.47s" repeatCount="indefinite"/></circle><circle cx="-8.4" cy="-104.4" r="2.3" fill="#F472B6"><animate attributeName="opacity" values=".35;0.95;.35" dur="3.2s" begin="1.54s" repeatCount="indefinite"/></circle><circle cx="8.4" cy="-104.4" r="2.3" fill="#A78BFA"><animate attributeName="opacity" values=".35;0.95;.35" dur="3.2s" begin="1.61s" repeatCount="indefinite"/></circle><circle cx="24.7" cy="-99.9" r="2.3" fill="#A78BFA"><animate attributeName="opacity" values=".35;0.95;.35" dur="3.2s" begin="1.68s" repeatCount="indefinite"/></circle><circle cx="40.0" cy="-90.9" r="2.3" fill="#A78BFA"><animate attributeName="opacity" values=".35;0.95;.35" dur="3.2s" begin="1.75s" repeatCount="indefinite"/></circle><circle cx="53.5" cy="-78.0" r="2.3" fill="#A78BFA"><animate attributeName="opacity" values=".35;0.95;.35" dur="3.2s" begin="1.82s" repeatCount="indefinite"/></circle><circle cx="64.7" cy="-61.7" r="2.3" fill="#A78BFA"><animate attributeName="opacity" values=".35;0.95;.35" dur="3.2s" begin="1.89s" repeatCount="indefinite"/></circle><circle cx="73.1" cy="-42.7" r="2.3" fill="#8BE9FD"><animate attributeName="opacity" values=".35;0.95;.35" dur="3.2s" begin="1.96s" repeatCount="indefinite"/></circle><circle cx="78.3" cy="-21.8" r="2.3" fill="#A78BFA"><animate attributeName="opacity" values=".35;0.95;.35" dur="3.2s" begin="2.03s" repeatCount="indefinite"/></circle><circle cx="-58.0" cy="-42.0" r="2.3" fill="#A78BFA"><animate attributeName="opacity" values=".35;0.95;.35" dur="3.2s" begin="2.10s" repeatCount="indefinite"/></circle><circle cx="-48.0" cy="-48.4" r="2.3" fill="#A78BFA"><animate attributeName="opacity" values=".35;0.95;.35" dur="3.2s" begin="2.17s" repeatCount="indefinite"/></circle><circle cx="-38.0" cy="-51.0" r="2.3" fill="#A78BFA"><animate attributeName="opacity" values=".35;0.95;.35" dur="3.2s" begin="2.24s" repeatCount="indefinite"/></circle><circle cx="-28.0" cy="-48.4" r="2.3" fill="#F472B6"><animate attributeName="opacity" values=".35;0.95;.35" dur="3.2s" begin="2.31s" repeatCount="indefinite"/></circle><circle cx="-18.0" cy="-42.0" r="2.3" fill="#A78BFA"><animate attributeName="opacity" values=".35;0.95;.35" dur="3.2s" begin="2.38s" repeatCount="indefinite"/></circle><circle cx="58.0" cy="-42.0" r="2.3" fill="#8BE9FD"><animate attributeName="opacity" values=".35;0.95;.35" dur="3.2s" begin="2.45s" repeatCount="indefinite"/></circle><circle cx="48.0" cy="-48.4" r="2.3" fill="#A78BFA"><animate attributeName="opacity" values=".35;0.95;.35" dur="3.2s" begin="2.52s" repeatCount="indefinite"/></circle><circle cx="38.0" cy="-51.0" r="2.3" fill="#A78BFA"><animate attributeName="opacity" values=".35;0.95;.35" dur="3.2s" begin="2.59s" repeatCount="indefinite"/></circle><circle cx="28.0" cy="-48.4" r="2.3" fill="#A78BFA"><animate attributeName="opacity" values=".35;0.95;.35" dur="3.2s" begin="2.66s" repeatCount="indefinite"/></circle><circle cx="18.0" cy="-42.0" r="2.3" fill="#A78BFA"><animate attributeName="opacity" values=".35;0.95;.35" dur="3.2s" begin="2.73s" repeatCount="indefinite"/></circle><circle cx="-21.0" cy="-22.0" r="2.3" fill="#A78BFA"><animate attributeName="opacity" values=".35;0.95;.35" dur="3.2s" begin="2.80s" repeatCount="indefinite"/></circle><circle cx="-25.4" cy="-17.8" r="2.3" fill="#A78BFA"><animate attributeName="opacity" values=".35;0.95;.35" dur="3.2s" begin="2.87s" repeatCount="indefinite"/></circle><circle cx="-36.0" cy="-16.0" r="2.3" fill="#8BE9FD"><animate attributeName="opacity" values=".35;0.95;.35" dur="3.2s" begin="2.94s" repeatCount="indefinite"/></circle><circle cx="-46.6" cy="-17.8" r="2.3" fill="#A78BFA"><animate attributeName="opacity" values=".35;0.95;.35" dur="3.2s" begin="0.01s" repeatCount="indefinite"/></circle><circle cx="-51.0" cy="-22.0" r="2.3" fill="#F472B6"><animate attributeName="opacity" values=".35;0.95;.35" dur="3.2s" begin="0.08s" repeatCount="indefinite"/></circle><circle cx="-46.6" cy="-26.2" r="2.3" fill="#A78BFA"><animate attributeName="opacity" values=".35;0.95;.35" dur="3.2s" begin="0.15s" repeatCount="indefinite"/></circle><circle cx="-36.0" cy="-28.0" r="2.3" fill="#A78BFA"><animate attributeName="opacity" values=".35;0.95;.35" dur="3.2s" begin="0.22s" repeatCount="indefinite"/></circle><circle cx="-25.4" cy="-26.2" r="2.3" fill="#A78BFA"><animate attributeName="opacity" values=".35;0.95;.35" dur="3.2s" begin="0.29s" repeatCount="indefinite"/></circle><circle cx="51.0" cy="-22.0" r="2.3" fill="#A78BFA"><animate attributeName="opacity" values=".35;0.95;.35" dur="3.2s" begin="0.36s" repeatCount="indefinite"/></circle><circle cx="46.6" cy="-17.8" r="2.3" fill="#8BE9FD"><animate attributeName="opacity" values=".35;0.95;.35" dur="3.2s" begin="0.43s" repeatCount="indefinite"/></circle><circle cx="36.0" cy="-16.0" r="2.3" fill="#A78BFA"><animate attributeName="opacity" values=".35;0.95;.35" dur="3.2s" begin="0.50s" repeatCount="indefinite"/></circle><circle cx="25.4" cy="-17.8" r="2.3" fill="#A78BFA"><animate attributeName="opacity" values=".35;0.95;.35" dur="3.2s" begin="0.57s" repeatCount="indefinite"/></circle><circle cx="21.0" cy="-22.0" r="2.3" fill="#A78BFA"><animate attributeName="opacity" values=".35;0.95;.35" dur="3.2s" begin="0.64s" repeatCount="indefinite"/></circle><circle cx="25.4" cy="-26.2" r="2.3" fill="#A78BFA"><animate attributeName="opacity" values=".35;0.95;.35" dur="3.2s" begin="0.71s" repeatCount="indefinite"/></circle><circle cx="36.0" cy="-28.0" r="2.3" fill="#A78BFA"><animate attributeName="opacity" values=".35;0.95;.35" dur="3.2s" begin="0.78s" repeatCount="indefinite"/></circle><circle cx="46.6" cy="-26.2" r="2.3" fill="#F472B6"><animate attributeName="opacity" values=".35;0.95;.35" dur="3.2s" begin="0.85s" repeatCount="indefinite"/></circle><circle cx="0.0" cy="-20.0" r="2.3" fill="#8BE9FD"><animate attributeName="opacity" values=".35;0.95;.35" dur="3.2s" begin="0.92s" repeatCount="indefinite"/></circle><circle cx="0.0" cy="-4.0" r="2.3" fill="#A78BFA"><animate attributeName="opacity" values=".35;0.95;.35" dur="3.2s" begin="0.99s" repeatCount="indefinite"/></circle><circle cx="0.0" cy="12.0" r="2.3" fill="#A78BFA"><animate attributeName="opacity" values=".35;0.95;.35" dur="3.2s" begin="1.06s" repeatCount="indefinite"/></circle><circle cx="-9.0" cy="30.0" r="2.3" fill="#A78BFA"><animate attributeName="opacity" values=".35;0.95;.35" dur="3.2s" begin="1.13s" repeatCount="indefinite"/></circle><circle cx="-4.0" cy="33.0" r="2.3" fill="#A78BFA"><animate attributeName="opacity" values=".35;0.95;.35" dur="3.2s" begin="1.20s" repeatCount="indefinite"/></circle><circle cx="0.0" cy="34.0" r="2.3" fill="#A78BFA"><animate attributeName="opacity" values=".35;0.95;.35" dur="3.2s" begin="1.27s" repeatCount="indefinite"/></circle><circle cx="4.0" cy="33.0" r="2.3" fill="#A78BFA"><animate attributeName="opacity" values=".35;0.95;.35" dur="3.2s" begin="1.34s" repeatCount="indefinite"/></circle><circle cx="9.0" cy="30.0" r="2.3" fill="#8BE9FD"><animate attributeName="opacity" values=".35;0.95;.35" dur="3.2s" begin="1.41s" repeatCount="indefinite"/></circle><circle cx="-24.0" cy="58.0" r="2.3" fill="#A78BFA"><animate attributeName="opacity" values=".35;0.95;.35" dur="3.2s" begin="1.48s" repeatCount="indefinite"/></circle><circle cx="-16.0" cy="55.0" r="2.3" fill="#A78BFA"><animate attributeName="opacity" values=".35;0.95;.35" dur="3.2s" begin="1.55s" repeatCount="indefinite"/></circle><circle cx="-8.0" cy="52.8" r="2.3" fill="#F472B6"><animate attributeName="opacity" values=".35;0.95;.35" dur="3.2s" begin="1.62s" repeatCount="indefinite"/></circle><circle cx="0.0" cy="52.0" r="2.3" fill="#A78BFA"><animate attributeName="opacity" values=".35;0.95;.35" dur="3.2s" begin="1.69s" repeatCount="indefinite"/></circle><circle cx="8.0" cy="52.8" r="2.3" fill="#A78BFA"><animate attributeName="opacity" values=".35;0.95;.35" dur="3.2s" begin="1.76s" repeatCount="indefinite"/></circle><circle cx="16.0" cy="55.0" r="2.3" fill="#A78BFA"><animate attributeName="opacity" values=".35;0.95;.35" dur="3.2s" begin="1.83s" repeatCount="indefinite"/></circle><circle cx="24.0" cy="58.0" r="2.3" fill="#8BE9FD"><animate attributeName="opacity" values=".35;0.95;.35" dur="3.2s" begin="1.90s" repeatCount="indefinite"/></circle><circle cx="-16.0" cy="64.0" r="2.3" fill="#A78BFA"><animate attributeName="opacity" values=".35;0.95;.35" dur="3.2s" begin="1.97s" repeatCount="indefinite"/></circle><circle cx="-8.0" cy="66.9" r="2.3" fill="#A78BFA"><animate attributeName="opacity" values=".35;0.95;.35" dur="3.2s" begin="2.04s" repeatCount="indefinite"/></circle><circle cx="0.0" cy="68.0" r="2.3" fill="#A78BFA"><animate attributeName="opacity" values=".35;0.95;.35" dur="3.2s" begin="2.11s" repeatCount="indefinite"/></circle><circle cx="8.0" cy="66.9" r="2.3" fill="#A78BFA"><animate attributeName="opacity" values=".35;0.95;.35" dur="3.2s" begin="2.18s" repeatCount="indefinite"/></circle><circle cx="16.0" cy="64.0" r="2.3" fill="#A78BFA"><animate attributeName="opacity" values=".35;0.95;.35" dur="3.2s" begin="2.25s" repeatCount="indefinite"/></circle></g>
  
<defs><linearGradient id="sch" x1="0" y1="0" x2="0" y2="1">
  <stop offset="0" stop-color="#8BE9FD" stop-opacity="0"/><stop offset="1" stop-color="#8BE9FD" stop-opacity=".38"/></linearGradient></defs>
<rect x="-105" width="210" height="46" fill="url(#sch)"><animate attributeName="y" values="-181;89;-181" dur="3.6s" begin="0s" repeatCount="indefinite"/></rect>
<rect x="-105" width="210" height="2.4" fill="#8BE9FD" opacity=".95"><animate attributeName="y" values="-135;135;-135" dur="3.6s" begin="0s" repeatCount="indefinite"/></rect>
  <text y="166" text-anchor="middle" font-family="'JetBrains Mono','SF Mono','Cascadia Code',Menlo,Consolas,monospace" font-size="12.5" letter-spacing="3" fill="#8BE9FD">LIVENESS CHECK<animate attributeName="opacity" values="1;.35;1" dur="3s" repeatCount="indefinite"/></text>
</g>
<rect x="1" y="1" width="998" height="398" rx="24" fill="none" stroke="url(#g)" stroke-opacity=".55" stroke-width="1.5"/>
</g></svg>